<?xml version="1.0" encoding="UTF-8"?>
<svg xmlns="http://www.w3.org/2000/svg" xmlns:xlink="http://www.w3.org/1999/xlink" width="64px" height="64px" viewBox="0 0 64 64" version="1.1">
<g id="surface1">
<path style=" stroke:none;fill-rule:nonzero;fill:rgb(3.921569%,3.921569%,3.137255%);fill-opacity:1;" d="M 0 0 C 21.121094 0 42.238281 0 64 0 C 64 21.121094 64 42.238281 64 64 C 42.878906 64 21.761719 64 0 64 C 0 42.878906 0 21.761719 0 0 Z M 0 0 "/>
<path style=" stroke:none;fill-rule:nonzero;fill:rgb(97.647059%,97.647059%,97.647059%);fill-opacity:1;" d="M 27.4375 9.3125 C 30.53125 9.3125 33.625 9.3125 36.8125 9.3125 C 37.484375 11.394531 38.15625 13.476562 38.820312 15.5625 C 39.085938 16.386719 39.355469 17.210938 39.625 18.035156 C 39.9375 18.992188 40.25 19.953125 40.554688 20.914062 C 40.929688 22.089844 41.3125 23.265625 41.695312 24.4375 C 42 25.363281 42.300781 26.292969 42.597656 27.222656 C 43.164062 28.996094 43.746094 30.765625 44.328125 32.535156 C 44.355469 32.613281 44.355469 32.613281 44.382812 32.695312 C 44.417969 32.796875 44.453125 32.902344 44.484375 33.007812 C 44.742188 33.785156 44.996094 34.5625 45.25 35.34375 C 45.648438 36.570312 46.050781 37.792969 46.453125 39.015625 C 46.46875 39.066406 46.488281 39.121094 46.503906 39.175781 C 46.71875 39.828125 46.933594 40.480469 47.148438 41.128906 C 49.058594 46.929688 49.058594 46.929688 49.875 49.425781 C 50.003906 49.816406 50.128906 50.207031 50.257812 50.597656 C 50.34375 50.851562 50.425781 51.105469 50.507812 51.359375 C 50.546875 51.476562 50.585938 51.59375 50.625 51.710938 C 50.675781 51.871094 50.726562 52.03125 50.78125 52.191406 C 50.792969 52.234375 50.808594 52.28125 50.824219 52.328125 C 50.898438 52.554688 50.953125 52.769531 51 53 C 48.359375 53 45.71875 53 43 53 C 42.789062 52.4375 42.789062 52.4375 42.703125 52.164062 C 42.683594 52.101562 42.664062 52.039062 42.644531 51.976562 C 42.625 51.910156 42.601562 51.847656 42.582031 51.777344 C 42.558594 51.710938 42.539062 51.640625 42.515625 51.570312 C 42.445312 51.347656 42.375 51.121094 42.304688 50.898438 C 42.28125 50.820312 42.257812 50.746094 42.230469 50.667969 C 41.941406 49.742188 41.652344 48.8125 41.378906 47.882812 C 41.207031 47.304688 41.023438 46.730469 40.835938 46.160156 C 40.613281 45.472656 40.402344 44.78125 40.195312 44.089844 C 40.050781 43.601562 39.898438 43.113281 39.730469 42.632812 C 39.667969 42.453125 39.625 42.316406 39.625 42.125 C 34.511719 42.125 29.394531 42.125 24.125 42.125 C 24.105469 42.269531 24.082031 42.414062 24.0625 42.5625 C 24.027344 42.691406 23.992188 42.816406 23.953125 42.945312 C 23.929688 43.019531 23.910156 43.09375 23.886719 43.167969 C 23.859375 43.25 23.835938 43.332031 23.8125 43.410156 C 23.785156 43.5 23.757812 43.585938 23.730469 43.671875 C 23.660156 43.90625 23.585938 44.140625 23.515625 44.375 C 23.4375 44.625 23.363281 44.871094 23.285156 45.121094 C 23.105469 45.710938 22.921875 46.300781 22.738281 46.890625 C 22.667969 47.121094 22.597656 47.351562 22.527344 47.582031 C 22.136719 48.847656 21.746094 50.113281 21.355469 51.375 C 21.34375 51.421875 21.328125 51.464844 21.316406 51.507812 C 21.289062 51.59375 21.261719 51.679688 21.234375 51.765625 C 21.175781 51.964844 21.113281 52.167969 21.050781 52.367188 C 21.03125 52.441406 21.007812 52.515625 20.984375 52.589844 C 20.964844 52.65625 20.945312 52.722656 20.925781 52.789062 C 20.875 52.9375 20.875 52.9375 20.8125 53 C 20.707031 53.007812 20.605469 53.007812 20.5 53.007812 C 20.398438 53.007812 20.398438 53.007812 20.296875 53.007812 C 20.222656 53.007812 20.148438 53.007812 20.070312 53.007812 C 19.992188 53.007812 19.914062 53.007812 19.835938 53.007812 C 19.621094 53.007812 19.40625 53.007812 19.191406 53.007812 C 18.964844 53.007812 18.742188 53.007812 18.519531 53.003906 C 18.09375 53.003906 17.667969 53.003906 17.246094 53.003906 C 16.761719 53.003906 16.277344 53.003906 15.796875 53.003906 C 14.800781 53.003906 13.808594 53 12.8125 53 C 12.84375 52.890625 12.871094 52.78125 12.902344 52.671875 C 12.917969 52.609375 12.933594 52.550781 12.953125 52.488281 C 13.011719 52.269531 13.082031 52.058594 13.15625 51.847656 C 13.171875 51.804688 13.183594 51.761719 13.199219 51.71875 C 13.230469 51.632812 13.261719 51.542969 13.292969 51.453125 C 13.375 51.210938 13.460938 50.96875 13.542969 50.722656 C 13.5625 50.675781 13.578125 50.625 13.597656 50.570312 C 13.769531 50.074219 13.933594 49.570312 14.101562 49.070312 C 14.722656 47.199219 15.363281 45.332031 16 43.464844 C 16.835938 41.023438 17.664062 38.578125 18.480469 36.125 C 18.609375 35.730469 18.742188 35.332031 18.875 34.933594 C 18.921875 34.796875 18.96875 34.660156 19.015625 34.519531 C 19.171875 34.046875 19.332031 33.570312 19.488281 33.097656 C 19.917969 31.808594 20.347656 30.523438 20.765625 29.234375 C 21.242188 27.765625 21.726562 26.296875 22.230469 24.839844 C 22.265625 24.734375 22.300781 24.632812 22.335938 24.527344 C 22.351562 24.480469 22.367188 24.433594 22.382812 24.386719 C 22.625 23.679688 22.863281 22.976562 23.089844 22.265625 C 23.585938 20.734375 24.09375 19.207031 24.605469 17.679688 C 24.726562 17.316406 24.847656 16.949219 24.96875 16.585938 C 25.460938 15.105469 25.957031 13.625 26.464844 12.148438 C 26.757812 11.296875 27.042969 10.441406 27.324219 9.582031 C 27.375 9.4375 27.375 9.4375 27.4375 9.3125 Z M 27.4375 9.3125 "/>
<path style=" stroke:none;fill-rule:nonzero;fill:rgb(3.921569%,3.921569%,3.529412%);fill-opacity:1;" d="M 31.875 17.625 C 31.917969 17.625 31.957031 17.625 32 17.625 C 32.019531 17.695312 32.019531 17.695312 32.042969 17.765625 C 32.765625 20.148438 33.492188 22.527344 34.234375 24.902344 C 34.390625 25.414062 34.550781 25.925781 34.710938 26.441406 C 35.109375 27.738281 35.511719 29.035156 35.921875 30.328125 C 35.9375 30.378906 35.953125 30.425781 35.96875 30.476562 C 36.117188 30.953125 36.269531 31.429688 36.417969 31.910156 C 37.4375 35.128906 37.4375 35.128906 37.4375 35.3125 C 33.785156 35.332031 30.136719 35.355469 26.375 35.375 C 26.515625 34.742188 26.515625 34.742188 26.613281 34.429688 C 26.636719 34.355469 26.65625 34.285156 26.679688 34.214844 C 26.703125 34.136719 26.726562 34.0625 26.753906 33.984375 C 26.777344 33.90625 26.804688 33.824219 26.828125 33.742188 C 26.894531 33.527344 26.964844 33.3125 27.03125 33.09375 C 27.089844 32.914062 27.144531 32.734375 27.203125 32.550781 C 27.554688 31.421875 27.914062 30.296875 28.273438 29.171875 C 28.65625 27.976562 29.03125 26.78125 29.402344 25.585938 C 29.46875 25.375 29.535156 25.160156 29.601562 24.945312 C 29.617188 24.902344 29.628906 24.859375 29.644531 24.816406 C 29.863281 24.113281 30.082031 23.414062 30.304688 22.710938 C 30.335938 22.613281 30.363281 22.515625 30.394531 22.417969 C 30.640625 21.644531 30.640625 21.644531 30.753906 21.28125 C 31.136719 20.066406 31.511719 18.847656 31.875 17.625 Z M 31.875 17.625 "/>
<path style=" stroke:none;fill-rule:nonzero;fill:rgb(89.803922%,89.411765%,89.411765%);fill-opacity:1;" d="M 50.8125 52.5 C 50.9375 52.6875 50.9375 52.6875 51 53 C 50.03125 53 49.0625 53 48.0625 53 C 48.0625 52.9375 48.0625 52.875 48.0625 52.8125 C 48.949219 52.8125 49.835938 52.8125 50.75 52.8125 C 50.769531 52.710938 50.792969 52.605469 50.8125 52.5 Z M 50.8125 52.5 "/>
<path style=" stroke:none;fill-rule:nonzero;fill:rgb(5.098039%,4.705882%,4.705882%);fill-opacity:1;" d="M 44.875 34.3125 C 44.9375 34.3125 45 34.3125 45.0625 34.3125 C 45.0625 34.375 45.0625 34.4375 45.0625 34.5 C 45.105469 34.542969 45.144531 34.582031 45.1875 34.625 C 45.164062 34.757812 45.164062 34.757812 45.125 34.875 C 45.167969 34.875 45.207031 34.875 45.25 34.875 C 45.261719 34.933594 45.261719 34.933594 45.273438 34.992188 C 45.285156 35.042969 45.292969 35.097656 45.304688 35.148438 C 45.316406 35.199219 45.324219 35.25 45.335938 35.300781 C 45.367188 35.449219 45.367188 35.449219 45.5 35.5625 C 45.523438 35.6875 45.546875 35.8125 45.5625 35.9375 C 45.5 35.9375 45.4375 35.9375 45.375 35.9375 C 45.292969 35.691406 45.207031 35.441406 45.125 35.195312 C 45.101562 35.125 45.078125 35.054688 45.054688 34.980469 C 45.03125 34.914062 45.007812 34.847656 44.984375 34.777344 C 44.964844 34.714844 44.941406 34.652344 44.921875 34.589844 C 44.875 34.4375 44.875 34.4375 44.875 34.3125 Z M 44.875 34.3125 "/>
<path style=" stroke:none;fill-rule:nonzero;fill:rgb(6.27451%,6.27451%,6.27451%);fill-opacity:1;" d="M 46.1875 38.3125 C 46.25 38.3125 46.3125 38.3125 46.375 38.3125 C 46.394531 38.5 46.417969 38.683594 46.4375 38.875 C 46.480469 38.875 46.519531 38.875 46.5625 38.875 C 46.570312 38.929688 46.574219 38.980469 46.582031 39.035156 C 46.628906 39.269531 46.714844 39.46875 46.8125 39.6875 C 46.855469 39.871094 46.855469 39.871094 46.875 40 C 46.8125 39.980469 46.75 39.957031 46.6875 39.9375 C 46.621094 39.792969 46.621094 39.792969 46.558594 39.609375 C 46.539062 39.539062 46.515625 39.472656 46.492188 39.40625 C 46.460938 39.300781 46.460938 39.300781 46.425781 39.191406 C 46.402344 39.121094 46.378906 39.050781 46.355469 38.980469 C 46.1875 38.457031 46.1875 38.457031 46.1875 38.3125 Z M 46.1875 38.3125 "/>
<path style=" stroke:none;fill-rule:nonzero;fill:rgb(5.882353%,5.882353%,5.882353%);fill-opacity:1;" d="M 48.125 44.125 C 48.339844 44.265625 48.347656 44.308594 48.414062 44.546875 C 48.429688 44.601562 48.445312 44.65625 48.460938 44.714844 C 48.503906 44.890625 48.539062 45.070312 48.5625 45.25 C 48.519531 45.25 48.480469 45.25 48.4375 45.25 C 48.386719 45.097656 48.332031 44.945312 48.28125 44.792969 C 48.257812 44.726562 48.257812 44.726562 48.234375 44.664062 C 48.171875 44.476562 48.125 44.324219 48.125 44.125 Z M 48.125 44.125 "/>
<path style=" stroke:none;fill-rule:nonzero;fill:rgb(5.882353%,5.882353%,5.882353%);fill-opacity:1;" d="M 16.1875 42.75 C 16.273438 43.003906 16.183594 43.175781 16.097656 43.417969 C 16.082031 43.460938 16.066406 43.503906 16.050781 43.550781 C 16.015625 43.660156 15.976562 43.765625 15.9375 43.875 C 15.894531 43.832031 15.855469 43.792969 15.8125 43.75 C 15.828125 43.613281 15.828125 43.613281 15.867188 43.460938 C 15.886719 43.382812 15.886719 43.382812 15.90625 43.304688 C 15.917969 43.265625 15.925781 43.226562 15.9375 43.1875 C 15.980469 43.1875 16.019531 43.1875 16.0625 43.1875 C 16.0625 43.0625 16.0625 42.941406 16.0625 42.8125 C 16.105469 42.792969 16.144531 42.769531 16.1875 42.75 Z M 16.1875 42.75 "/>
<path style=" stroke:none;fill-rule:nonzero;fill:rgb(6.27451%,6.27451%,5.882353%);fill-opacity:1;" d="M 37.625 11.9375 C 37.667969 11.9375 37.707031 11.9375 37.75 11.9375 C 37.75 12 37.75 12.0625 37.75 12.125 C 37.792969 12.125 37.832031 12.125 37.875 12.125 C 37.988281 12.371094 38.03125 12.605469 38.0625 12.875 C 38 12.855469 37.9375 12.832031 37.875 12.8125 C 37.800781 12.648438 37.800781 12.648438 37.738281 12.441406 C 37.714844 12.375 37.695312 12.304688 37.671875 12.238281 C 37.625 12.0625 37.625 12.0625 37.625 11.9375 Z M 37.625 11.9375 "/>
<path style=" stroke:none;fill-rule:nonzero;fill:rgb(7.058824%,7.058824%,7.058824%);fill-opacity:1;" d="M 43.875 31.1875 C 43.917969 31.1875 43.957031 31.1875 44 31.1875 C 44.285156 31.765625 44.285156 31.765625 44.25 32.125 C 44.207031 32.125 44.167969 32.125 44.125 32.125 C 44.082031 32.003906 44.042969 31.882812 44 31.761719 C 43.976562 31.695312 43.953125 31.625 43.929688 31.558594 C 43.875 31.375 43.875 31.375 43.875 31.1875 Z M 43.875 31.1875 "/>
<path style=" stroke:none;fill-rule:nonzero;fill:rgb(6.666667%,6.666667%,6.666667%);fill-opacity:1;" d="M 37.1875 10.1875 C 37.332031 10.402344 37.324219 10.5 37.3125 10.75 C 37.355469 10.75 37.394531 10.75 37.4375 10.75 C 37.457031 10.875 37.480469 10.996094 37.5 11.125 C 37.3125 11.0625 37.3125 11.0625 37.25 10.945312 C 37.09375 10.457031 37.09375 10.457031 37.1875 10.1875 Z M 37.1875 10.1875 "/>
<path style=" stroke:none;fill-rule:nonzero;fill:rgb(7.450981%,7.058824%,7.058824%);fill-opacity:1;" d="M 50.125 50.3125 C 50.167969 50.3125 50.207031 50.3125 50.25 50.3125 C 50.503906 50.816406 50.503906 50.816406 50.484375 51.066406 C 50.46875 51.105469 50.453125 51.144531 50.4375 51.1875 C 50.3125 51 50.265625 50.863281 50.210938 50.644531 C 50.195312 50.582031 50.179688 50.519531 50.160156 50.457031 C 50.148438 50.410156 50.136719 50.363281 50.125 50.3125 Z M 50.125 50.3125 "/>
<path style=" stroke:none;fill-rule:nonzero;fill:rgb(6.27451%,6.27451%,6.27451%);fill-opacity:1;" d="M 42.375 26.625 C 42.4375 26.625 42.5 26.625 42.5625 26.625 C 42.597656 26.714844 42.628906 26.804688 42.660156 26.894531 C 42.679688 26.945312 42.695312 26.996094 42.714844 27.046875 C 42.75 27.1875 42.75 27.1875 42.6875 27.375 C 42.5625 27.3125 42.5625 27.3125 42.507812 27.15625 C 42.492188 27.09375 42.476562 27.03125 42.460938 26.964844 C 42.445312 26.902344 42.429688 26.839844 42.410156 26.773438 C 42.398438 26.722656 42.386719 26.675781 42.375 26.625 Z M 42.375 26.625 "/>
<path style=" stroke:none;fill-rule:nonzero;fill:rgb(6.27451%,6.27451%,6.27451%);fill-opacity:1;" d="M 40.875 22 C 40.9375 22 41 22 41.0625 22 C 41.125 22.226562 41.1875 22.453125 41.25 22.6875 C 41.1875 22.6875 41.125 22.6875 41.0625 22.6875 C 41 22.460938 40.9375 22.234375 40.875 22 Z M 40.875 22 "/>
<path style=" stroke:none;fill-rule:nonzero;fill:rgb(7.450981%,7.450981%,7.058824%);fill-opacity:1;" d="M 23.6875 43.5625 C 23.730469 43.5625 23.769531 43.5625 23.8125 43.5625 C 23.8125 43.664062 23.8125 43.769531 23.8125 43.875 C 23.769531 43.875 23.730469 43.875 23.6875 43.875 C 23.699219 43.925781 23.714844 43.972656 23.726562 44.023438 C 23.738281 44.105469 23.738281 44.105469 23.75 44.1875 C 23.707031 44.230469 23.667969 44.269531 23.625 44.3125 C 23.582031 44.3125 23.542969 44.3125 23.5 44.3125 C 23.5625 44.066406 23.625 43.816406 23.6875 43.5625 Z M 23.6875 43.5625 "/>
<path style=" stroke:none;fill-rule:nonzero;fill:rgb(7.450981%,7.450981%,7.450981%);fill-opacity:1;" d="M 44.875 34.3125 C 44.9375 34.3125 45 34.3125 45.0625 34.3125 C 45.0625 34.375 45.0625 34.4375 45.0625 34.5 C 45.105469 34.542969 45.144531 34.582031 45.1875 34.625 C 45.164062 34.757812 45.164062 34.757812 45.125 34.875 C 45.167969 34.875 45.207031 34.875 45.25 34.875 C 45.25 34.917969 45.25 34.957031 45.25 35 C 45.1875 35 45.125 35 45.0625 35 C 45 34.773438 44.9375 34.546875 44.875 34.3125 Z M 44.875 34.3125 "/>
<path style=" stroke:none;fill-rule:nonzero;fill:rgb(94.901961%,94.509804%,94.901961%);fill-opacity:1;" d="M 40.0625 43.5625 C 40.125 43.582031 40.1875 43.605469 40.25 43.625 C 40.363281 43.878906 40.390625 44.046875 40.3125 44.3125 C 40.175781 44.074219 40.125 43.828125 40.0625 43.5625 Z M 40.0625 43.5625 "/>
<path style=" stroke:none;fill-rule:nonzero;fill:rgb(94.901961%,94.901961%,94.509804%);fill-opacity:1;" d="M 29 26.6875 C 29.070312 26.898438 29.054688 26.957031 28.984375 27.164062 C 28.960938 27.238281 28.960938 27.238281 28.9375 27.316406 C 28.875 27.4375 28.875 27.4375 28.6875 27.5 C 28.714844 27.410156 28.746094 27.324219 28.773438 27.234375 C 28.796875 27.160156 28.796875 27.160156 28.820312 27.085938 C 28.871094 26.945312 28.929688 26.816406 29 26.6875 Z M 29 26.6875 "/>
<path style=" stroke:none;fill-rule:nonzero;fill:rgb(7.058824%,7.058824%,7.058824%);fill-opacity:1;" d="M 15.0625 46 C 15.105469 46.019531 15.144531 46.042969 15.1875 46.0625 C 15.125 46.25 15.0625 46.433594 15 46.625 C 14.9375 46.605469 14.875 46.582031 14.8125 46.5625 C 14.832031 46.503906 14.855469 46.445312 14.875 46.382812 C 14.945312 46.203125 14.945312 46.203125 14.9375 46.0625 C 14.980469 46.042969 15.019531 46.019531 15.0625 46 Z M 15.0625 46 "/>
<path style=" stroke:none;fill-rule:nonzero;fill:rgb(9.019608%,9.019608%,9.019608%);fill-opacity:1;" d="M 19.4375 33.0625 C 19.511719 33.28125 19.484375 33.332031 19.410156 33.542969 C 19.382812 33.617188 19.382812 33.617188 19.355469 33.695312 C 19.339844 33.734375 19.328125 33.773438 19.3125 33.8125 C 19.269531 33.769531 19.230469 33.730469 19.1875 33.6875 C 19.210938 33.492188 19.210938 33.492188 19.25 33.3125 C 19.292969 33.3125 19.332031 33.3125 19.375 33.3125 C 19.394531 33.230469 19.417969 33.148438 19.4375 33.0625 Z M 19.4375 33.0625 "/>
<path style=" stroke:none;fill-rule:nonzero;fill:rgb(7.058824%,7.058824%,7.058824%);fill-opacity:1;" d="M 43.0625 28.75 C 43.125 28.75 43.1875 28.75 43.25 28.75 C 43.25 28.875 43.25 28.996094 43.25 29.125 C 43.292969 29.125 43.332031 29.125 43.375 29.125 C 43.375 29.226562 43.375 29.332031 43.375 29.4375 C 43.332031 29.4375 43.292969 29.4375 43.25 29.4375 C 43.1875 29.210938 43.125 28.984375 43.0625 28.75 Z M 43.0625 28.75 "/>
<path style=" stroke:none;fill-rule:nonzero;fill:rgb(7.843138%,7.450981%,7.450981%);fill-opacity:1;" d="M 23.25 45 C 23.292969 45 23.332031 45 23.375 45 C 23.382812 45.359375 23.382812 45.359375 23.3125 45.5 C 23.269531 45.5 23.230469 45.5 23.1875 45.5 C 23.167969 45.582031 23.144531 45.664062 23.125 45.75 C 23.035156 45.574219 23.09375 45.488281 23.152344 45.304688 C 23.171875 45.246094 23.1875 45.191406 23.207031 45.132812 C 23.222656 45.089844 23.234375 45.046875 23.25 45 Z M 23.25 45 "/>
<path style=" stroke:none;fill-rule:nonzero;fill:rgb(94.117647%,94.117647%,94.117647%);fill-opacity:1;" d="M 21.125 51.6875 C 21.226562 51.9375 21.144531 52.128906 21.0625 52.375 C 21.019531 52.355469 20.980469 52.332031 20.9375 52.3125 C 20.984375 51.898438 20.984375 51.898438 21.125 51.6875 Z M 21.125 51.6875 "/>
<path style=" stroke:none;fill-rule:nonzero;fill:rgb(9.803922%,9.411765%,9.411765%);fill-opacity:1;" d="M 36.4375 32.375 C 36.480469 32.375 36.519531 32.375 36.5625 32.375 C 36.625 32.601562 36.6875 32.828125 36.75 33.0625 C 36.6875 33.019531 36.625 32.980469 36.5625 32.9375 C 36.5625 32.855469 36.5625 32.773438 36.5625 32.6875 C 36.519531 32.6875 36.480469 32.6875 36.4375 32.6875 C 36.4375 32.585938 36.4375 32.480469 36.4375 32.375 Z M 36.4375 32.375 "/>
<path style=" stroke:none;fill-rule:nonzero;fill:rgb(6.27451%,6.27451%,5.882353%);fill-opacity:1;" d="M 40.3125 20.1875 C 40.375 20.207031 40.4375 20.230469 40.5 20.25 C 40.546875 20.367188 40.546875 20.367188 40.574219 20.503906 C 40.585938 20.550781 40.59375 20.59375 40.605469 20.644531 C 40.613281 20.695312 40.613281 20.695312 40.625 20.75 C 40.5625 20.75 40.5 20.75 40.4375 20.75 C 40.394531 20.5625 40.355469 20.378906 40.3125 20.1875 Z M 40.3125 20.1875 "/>
<path style=" stroke:none;fill-rule:nonzero;fill:rgb(95.294118%,95.686275%,95.294118%);fill-opacity:1;" d="M 40.6875 45.5 C 40.730469 45.5 40.769531 45.5 40.8125 45.5 C 40.875 45.6875 40.9375 45.871094 41 46.0625 C 40.9375 46.0625 40.875 46.0625 40.8125 46.0625 C 40.769531 45.875 40.730469 45.691406 40.6875 45.5 Z M 40.6875 45.5 "/>
<path style=" stroke:none;fill-rule:nonzero;fill:rgb(5.882353%,5.882353%,5.882353%);fill-opacity:1;" d="M 40.1875 44.0625 C 40.308594 44.28125 40.371094 44.507812 40.4375 44.75 C 40.394531 44.75 40.355469 44.75 40.3125 44.75 C 40.292969 44.648438 40.269531 44.542969 40.25 44.4375 C 40.207031 44.4375 40.167969 44.4375 40.125 44.4375 C 40.121094 44.332031 40.121094 44.230469 40.125 44.125 C 40.144531 44.105469 40.167969 44.082031 40.1875 44.0625 Z M 40.1875 44.0625 "/>
<path style=" stroke:none;fill-rule:nonzero;fill:rgb(7.450981%,7.450981%,7.450981%);fill-opacity:1;" d="M 33.375 22.5625 C 33.417969 22.5625 33.457031 22.5625 33.5 22.5625 C 33.542969 22.726562 33.582031 22.890625 33.625 23.0625 C 33.5625 23.082031 33.5 23.105469 33.4375 23.125 C 33.417969 22.9375 33.394531 22.753906 33.375 22.5625 Z M 33.375 22.5625 "/>
<path style=" stroke:none;fill-rule:nonzero;fill:rgb(5.882353%,5.882353%,5.882353%);fill-opacity:1;" d="M 39.5625 17.5 C 39.625 17.6875 39.6875 17.875 39.75 18.0625 C 39.6875 18.0625 39.625 18.0625 39.5625 18.0625 C 39.519531 17.898438 39.480469 17.734375 39.4375 17.5625 C 39.480469 17.542969 39.519531 17.519531 39.5625 17.5 Z M 39.5625 17.5 "/>
<path style=" stroke:none;fill-rule:nonzero;fill:rgb(9.411765%,9.019608%,9.019608%);fill-opacity:1;" d="M 20.9375 28.4375 C 20.980469 28.4375 21.019531 28.4375 21.0625 28.4375 C 21.019531 28.601562 20.980469 28.765625 20.9375 28.9375 C 20.875 28.9375 20.8125 28.9375 20.75 28.9375 C 20.867188 28.578125 20.867188 28.578125 20.9375 28.4375 Z M 20.9375 28.4375 "/>
<path style=" stroke:none;fill-rule:nonzero;fill:rgb(93.725491%,93.725491%,93.725491%);fill-opacity:1;" d="M 33.625 22.9375 C 33.6875 22.96875 33.6875 22.96875 33.75 23 C 33.875 23.382812 33.875 23.382812 33.875 23.5625 C 33.832031 23.5625 33.792969 23.5625 33.75 23.5625 C 33.667969 23.335938 33.625 23.179688 33.625 22.9375 Z M 33.625 22.9375 "/>
<path style=" stroke:none;fill-rule:nonzero;fill:rgb(6.27451%,6.27451%,6.27451%);fill-opacity:1;" d="M 26.5625 34.5625 C 26.605469 34.5625 26.644531 34.5625 26.6875 34.5625 C 26.703125 34.738281 26.703125 34.738281 26.6875 34.9375 C 26.5625 35.054688 26.5625 35.054688 26.4375 35.125 C 26.480469 34.9375 26.519531 34.753906 26.5625 34.5625 Z M 26.5625 34.5625 "/>
<path style=" stroke:none;fill-rule:nonzero;fill:rgb(7.058824%,6.666667%,6.666667%);fill-opacity:1;" d="M 41.625 24.3125 C 41.6875 24.3125 41.75 24.3125 41.8125 24.3125 C 41.832031 24.476562 41.855469 24.640625 41.875 24.8125 C 41.832031 24.8125 41.792969 24.8125 41.75 24.8125 C 41.707031 24.648438 41.667969 24.484375 41.625 24.3125 Z M 41.625 24.3125 "/>
<path style=" stroke:none;fill-rule:nonzero;fill:rgb(8.235294%,8.235294%,8.235294%);fill-opacity:1;" d="M 31.875 17.625 C 31.917969 17.625 31.957031 17.625 32 17.625 C 32.019531 17.726562 32.042969 17.832031 32.0625 17.9375 C 32 17.9375 31.9375 17.9375 31.875 17.9375 C 31.855469 18.019531 31.832031 18.101562 31.8125 18.1875 C 31.710938 17.988281 31.808594 17.828125 31.875 17.625 Z M 31.875 17.625 "/>
<path style=" stroke:none;fill-rule:nonzero;fill:rgb(7.843138%,7.843138%,7.843138%);fill-opacity:1;" d="M 41.4375 48.5 C 41.5 48.5 41.5625 48.5 41.625 48.5 C 41.667969 48.664062 41.707031 48.828125 41.75 49 C 41.707031 49 41.667969 49 41.625 49 C 41.4375 48.640625 41.4375 48.640625 41.4375 48.5 Z M 41.4375 48.5 "/>
<path style=" stroke:none;fill-rule:nonzero;fill:rgb(93.333334%,93.725491%,93.333334%);fill-opacity:1;" d="M 33 21 C 33.042969 21 33.082031 21 33.125 21 C 33.226562 21.160156 33.253906 21.230469 33.226562 21.421875 C 33.214844 21.46875 33.199219 21.515625 33.1875 21.5625 C 33.085938 21.378906 33.035156 21.207031 33 21 Z M 33 21 "/>
</g>
</svg>
